<svg version="1.1" id="Layer_1" xmlns="http://www.w3.org/2000/svg" xmlns:xlink="http://www.w3.org/1999/xlink" x="0px" y="0px"
	 width="100%" viewBox="0 0 150 150" enable-background="new 0 0 150 150" xml:space="preserve">
<path fill="#000000" opacity="0" stroke="none" 
	d="
M1.000000,62.000000 
	C1.000000,42.349316 1.043918,23.198400 0.944053,4.048236 
	C0.931661,1.671995 1.324443,0.921764 3.947204,0.927213 
	C51.906971,1.026838 99.867096,1.035724 147.826752,0.912740 
	C150.756546,0.905227 151.071579,1.705936 151.066589,4.321692 
	C150.975433,52.114971 150.973648,99.908524 151.070160,147.701782 
	C151.075546,150.366226 150.682617,151.091400 147.803299,151.084305 
	C99.843620,150.966034 51.883488,150.971100 3.923744,151.076767 
	C1.242415,151.082657 0.943776,150.247208 0.950024,147.928436 
	C1.026758,119.452454 1.000000,90.976189 1.000000,62.000000 
z"/>
<path fill="#DB2622" opacity="1.000000" stroke="none" 
	d="
M43.447708,121.291084 
	C43.055687,117.199753 42.850586,113.371834 43.050720,109.565224 
	C43.202869,106.671326 42.122150,105.877754 39.348579,105.953224 
	C31.418608,106.169014 23.668871,104.668350 16.331980,101.859520 
	C11.367927,99.959099 6.124130,97.591316 6.117845,90.422951 
	C6.756751,89.428375 7.429379,88.994026 8.662573,88.827423 
	C9.551242,88.914658 10.179008,88.940704 10.445484,89.307838 
	C16.617115,97.810806 26.106192,98.379410 35.267754,99.697754 
	C36.578876,99.886421 37.882099,100.135422 39.540886,100.240570 
	C40.524750,100.064056 41.120388,99.831062 41.750378,99.052475 
	C43.039146,95.800423 42.322926,92.570236 43.345299,89.212128 
	C44.654621,82.202385 46.135017,75.622757 48.418777,68.849487 
	C48.617390,67.732155 48.884041,67.031693 49.219948,65.975067 
	C49.619648,62.737316 51.411846,60.437874 52.456409,57.481644 
	C52.541981,56.210487 53.039547,55.434460 53.445717,54.280602 
	C53.691284,53.327202 53.959961,52.728069 54.205097,51.782104 
	C54.273708,50.550728 54.758858,49.813622 55.296349,48.754044 
	C55.656151,47.848106 56.136955,47.397812 56.574917,46.551998 
	C57.045689,45.036049 58.025322,44.109306 58.341946,42.534088 
	C58.382347,40.029968 60.465302,38.532902 60.181736,36.030899 
	C50.588600,29.608282 40.853104,24.884613 28.805363,28.919046 
	C27.112755,28.167290 26.287296,27.219322 26.728012,25.263729 
	C32.854355,18.792253 39.902107,20.788784 46.754139,22.406818 
	C52.357414,23.729975 57.634018,26.244785 62.387745,29.345884 
	C65.509895,31.382620 66.530891,30.461397 68.038483,27.956646 
	C70.848564,23.287872 74.339661,19.180168 78.124176,15.217059 
	C83.136345,9.968359 88.746468,7.038873 96.538757,8.101582 
	C97.920471,9.280630 98.090675,10.474621 97.132706,12.058825 
	C84.723114,14.317154 78.806374,24.063787 71.667801,32.686501 
	C70.734215,33.461533 71.480064,33.638599 72.030960,34.139290 
	C75.349571,36.169369 78.150101,38.396339 81.322548,40.682877 
	C82.141800,41.276207 82.550339,41.817898 83.303024,42.478012 
	C84.668434,44.031681 86.148636,44.984837 87.558037,46.481239 
	C88.438332,47.271370 89.180252,47.743896 89.846275,48.750904 
	C90.712341,50.166512 92.007751,50.681011 93.033775,51.937721 
	C95.428078,54.324200 98.103699,55.966301 99.963928,58.892551 
	C101.860191,60.830830 102.426468,63.431957 104.924072,64.884613 
	C105.691689,66.080452 106.080872,67.129074 107.137909,68.145493 
	C111.974754,72.031830 113.957916,77.623383 117.745544,82.266159 
	C118.849121,83.293327 119.731209,83.448135 120.888870,82.331810 
	C121.534576,81.928436 121.933762,81.748665 122.666412,81.493683 
	C123.207649,81.348953 123.428894,81.308960 123.980087,81.196663 
	C132.343750,76.639130 139.243103,71.128433 142.085724,61.444904 
	C143.187286,60.476170 144.130997,60.193508 145.509445,60.798058 
	C148.085556,66.169319 145.586960,73.266869 139.356979,78.041595 
	C134.689011,81.619171 130.097870,85.499611 124.572372,87.665459 
	C120.609467,89.218826 120.746620,91.016129 122.584084,94.245735 
	C127.401657,102.713326 129.844055,111.821938 129.016815,121.668823 
	C128.733749,125.038269 127.948387,128.086136 124.442902,130.023895 
	C122.918312,130.485077 122.113846,129.929688 121.235138,128.768890 
	C120.736969,127.449104 120.763062,126.436623 121.209679,125.524185 
	C126.409805,114.900032 120.821434,105.963600 116.727287,96.801987 
	C116.102821,95.404602 114.862068,95.010094 113.032333,95.212296 
	C110.913696,94.659393 109.093208,95.921654 107.034828,94.774887 
	C106.170189,93.958374 105.897820,93.250069 105.820496,92.099426 
	C106.186264,88.656075 110.041519,88.745155 110.882385,85.809448 
	C109.188438,81.867271 106.328972,79.002792 104.245804,75.258614 
	C103.416115,74.105202 103.296349,72.887833 102.013977,72.019012 
	C100.155922,70.290733 98.590111,68.749626 97.195847,66.632698 
	C95.800491,65.733833 95.395416,64.400391 94.209496,63.331329 
	C92.974098,62.372917 92.473701,61.152401 91.207428,60.232903 
	C89.927551,59.341805 89.480728,58.084080 88.231812,57.161949 
	C87.293648,55.933571 86.390144,55.110802 85.128563,54.213287 
	C84.131203,52.998566 82.987892,52.409492 81.901718,51.288124 
	C80.817162,49.540020 79.199409,48.756779 77.885712,47.218483 
	C75.184029,45.123512 73.234390,42.648941 70.509399,41.078156 
	C69.511185,40.502750 68.659103,39.655819 67.178925,40.655098 
	C66.308266,41.404926 65.836838,42.055519 65.570297,43.176933 
	C65.438492,44.315987 65.027267,45.023396 64.506157,46.015976 
	C64.162399,46.867702 63.839016,47.389259 63.461330,48.225204 
	C63.072750,49.059662 62.751324,49.585384 62.399902,50.441944 
	C61.933773,51.935837 60.978802,52.863083 60.682343,54.433144 
	C60.595280,55.879337 59.630421,56.684307 59.517593,58.135849 
	C59.382244,60.355404 57.638092,61.597137 57.459366,63.811417 
	C57.239990,64.825310 56.979343,65.472290 56.797733,66.505920 
	C56.505142,69.295296 55.167377,71.394936 54.565338,74.103775 
	C53.852722,78.146820 52.640102,81.692635 51.789467,85.708374 
	C51.024597,87.698235 51.249886,89.494377 50.682472,91.511963 
	C50.563816,93.295273 50.132988,94.655510 49.863930,96.383263 
	C49.538136,99.367096 51.394459,99.893311 53.723602,100.347168 
	C57.820618,100.985504 61.349407,100.020866 65.256454,98.973930 
	C69.668144,99.642357 73.229675,96.878685 77.621033,97.439987 
	C78.987175,97.319405 79.959541,97.156960 81.240822,96.721924 
	C82.045540,96.515335 82.507668,96.413879 83.299156,96.194290 
	C85.038193,95.103073 86.744797,95.129028 88.659714,94.609634 
	C89.710289,94.372192 90.415314,94.227982 91.505981,94.402679 
	C92.362434,94.482750 92.855057,94.524124 93.721985,94.624954 
	C94.855873,94.902534 95.507141,95.293129 96.250854,96.218216 
	C96.550392,96.795746 96.626350,97.048393 96.693924,97.697693 
	C96.553383,98.611641 96.315964,99.074760 95.677437,99.733627 
	C95.152122,100.090157 94.920403,100.195595 94.319138,100.380890 
	C91.313690,101.753876 88.306900,101.937248 85.344917,103.411041 
	C82.157753,104.473442 79.111069,104.428017 75.889084,105.433228 
	C75.278442,105.596413 75.035461,105.671654 74.419243,105.842087 
	C73.788712,105.952713 73.531433,105.968140 72.892303,105.930756 
	C72.009621,105.763626 71.504280,105.674927 70.608719,105.586586 
	C67.442001,104.824684 65.304726,106.969223 62.358574,107.219376 
	C59.194820,106.168655 56.504414,107.296356 53.419403,107.569778 
	C51.742851,107.703796 50.229115,107.174263 49.263412,109.106369 
	C49.073254,109.677933 49.007427,109.914993 48.866890,110.523453 
	C47.836739,113.781998 49.870213,116.831245 48.094917,120.060631 
	C46.742001,121.614143 45.404060,122.052353 43.447708,121.291084 
z"/>
<path fill="#AF222E" opacity="1.000000" stroke="none" 
	d="
M93.657837,99.244591 
	C93.916008,98.991737 94.398666,98.937355 94.641411,98.930161 
	C95.803711,98.591568 96.430756,99.026176 97.121117,100.083618 
	C98.138283,104.132706 95.280823,106.795906 94.566681,110.438416 
	C94.355835,111.535423 94.108856,112.236176 93.981232,113.327606 
	C92.315765,116.984055 93.166229,119.084900 96.582939,120.775124 
	C103.759422,124.325294 110.871384,127.786568 119.236328,126.618240 
	C120.080231,126.500374 120.858841,126.838409 121.748657,127.638641 
	C122.494095,128.523987 123.029442,129.130203 123.820831,129.903656 
	C120.278534,134.232773 115.256599,133.408295 110.715439,132.666626 
	C103.398392,131.471634 96.480965,128.534378 90.343071,124.458916 
	C87.125961,122.322807 86.117577,123.633949 84.664345,125.873215 
	C80.544708,132.221130 76.312996,138.411026 69.852913,142.781067 
	C66.413048,145.108032 62.932583,146.479736 58.358192,145.877258 
	C57.375183,145.256332 57.094948,144.590256 57.135681,143.452057 
	C57.913948,141.417770 59.413910,140.621719 60.971939,140.106750 
	C69.299179,137.354340 73.611542,130.381805 78.348419,123.819794 
	C79.877869,121.701042 78.960182,119.742996 78.225723,117.373291 
	C78.496811,114.908562 79.981773,113.579872 81.810333,113.396988 
	C85.431679,113.034790 86.718826,110.417000 88.368530,107.512955 
	C90.183937,104.650909 90.200432,101.080231 93.657837,99.244591 
z"/>
<path fill="#B02330" opacity="1.000000" stroke="none" 
	d="
M106.492996,68.572464 
	C105.246704,68.132111 104.607124,67.291580 103.887848,66.136444 
	C102.531265,63.563583 101.773010,61.240421 102.937363,58.269348 
	C102.989746,55.964584 102.645821,54.052326 103.314255,51.792038 
	C103.563431,50.086548 104.190628,48.878845 104.319458,47.158028 
	C104.468254,45.467289 104.491249,44.163677 104.496422,42.468388 
	C102.820351,32.757740 102.910606,22.923540 96.577347,14.959991 
	C96.046593,14.292616 95.873024,13.475894 95.958008,12.229720 
	C96.318031,10.829999 96.643333,9.821528 96.975098,8.490771 
	C102.944893,10.252551 105.056084,15.413609 106.977768,20.712473 
	C109.507683,27.688478 108.982979,34.956020 109.013710,42.173950 
	C109.021416,43.981441 109.221130,45.788124 109.670738,47.872437 
	C110.153549,48.352070 110.298210,48.554436 110.522247,49.120960 
	C109.764725,52.627651 110.692215,55.922489 109.718414,59.422997 
	C109.518631,60.762215 109.584229,61.767056 109.106857,63.057194 
	C108.736115,65.143990 108.032173,66.703178 106.492996,68.572464 
z"/>
<path fill="#AF222E" opacity="1.000000" stroke="none" 
	d="
M109.919281,49.583408 
	C109.953209,48.998577 109.964745,48.828831 109.992584,48.404388 
	C119.911812,47.931435 129.624893,48.827480 138.664520,53.321041 
	C141.795593,54.877483 144.376648,57.101528 145.862732,60.699951 
	C145.039963,61.298573 144.270950,61.546394 143.219238,61.908165 
	C142.126877,62.450275 141.258133,62.425472 140.570160,61.918159 
	C132.567139,56.016647 123.027138,55.086876 113.272224,53.518456 
	C111.014198,53.063927 110.064064,51.864182 109.919281,49.583408 
z"/>
<path fill="#A1CEE2" opacity="1.000000" stroke="none" 
	d="
M57.039375,48.712227 
	C56.861328,49.828526 56.454662,50.583309 55.969349,51.664059 
	C54.953781,53.020878 53.668301,53.274673 52.403641,53.656788 
	C44.283489,56.110298 38.956516,61.446003 36.094299,69.817253 
	C32.677277,72.602043 29.202374,74.191185 24.650751,72.996353 
	C22.662632,70.795082 24.401409,69.801659 25.820644,68.352364 
	C26.138456,68.082787 26.069393,68.063210 26.062870,68.098503 
	C26.221251,67.810760 26.455065,67.547417 27.007965,67.269669 
	C27.652521,66.847603 28.037170,66.491211 28.674181,66.048828 
	C29.193232,65.773476 29.434814,65.556198 29.793995,65.112961 
	C30.283564,64.453453 30.630428,63.991985 31.087978,63.257614 
	C31.319088,62.834038 31.439518,62.683357 31.741247,62.306152 
	C32.140217,61.750286 32.285179,61.390594 32.484909,60.726692 
	C32.712322,60.278027 32.825497,60.108753 33.149460,59.718018 
	C33.835052,59.086208 34.227348,58.608868 34.666611,57.753792 
	C35.852619,55.177452 37.675274,53.719986 40.214737,52.536358 
	C43.179108,51.904579 44.476192,49.189663 47.424255,48.509933 
	C50.817490,48.164078 53.791039,46.366177 57.039375,48.712227 
z"/>
<path fill="#A2222A" opacity="1.000000" stroke="none" 
	d="
M26.594162,25.064171 
	C27.473295,25.800005 28.038923,26.704351 28.812984,27.861012 
	C30.344522,30.386246 31.174509,32.871998 32.652351,35.124172 
	C35.498291,39.461277 34.345856,43.955833 29.634998,48.040390 
	C28.521017,48.379185 27.765728,48.402744 26.681042,48.018093 
	C24.602854,46.434330 25.304419,44.375973 25.524090,42.622589 
	C23.430649,42.414162 22.986860,44.088146 21.442871,44.583870 
	C17.732718,43.081409 18.462246,39.138130 19.567888,37.988934 
	C23.139273,34.276859 23.078167,28.926256 26.594162,25.064171 
z"/>
<path fill="#B02330" opacity="1.000000" stroke="none" 
	d="
M25.768848,68.068802 
	C26.374649,69.771988 24.689316,70.213455 23.869434,71.620621 
	C23.936127,72.598228 24.156860,73.280678 23.944418,74.355812 
	C19.094349,79.643517 14.308987,84.552193 9.428934,89.794388 
	C8.372345,89.942085 7.643248,89.975014 6.549549,90.022690 
	C5.116788,83.892815 9.157829,80.314987 12.916311,76.574661 
	C16.552370,72.956169 20.690567,70.092331 25.768848,68.068802 
z"/>
<path fill="#A22026" opacity="1.000000" stroke="none" 
	d="
M42.759422,121.185600 
	C44.172577,120.719620 45.258621,120.420731 46.678371,120.066650 
	C50.686337,117.749626 52.444584,120.350021 53.948788,122.945160 
	C55.798431,126.136253 55.666424,129.157394 51.924423,131.577209 
	C50.512955,131.807983 49.600056,131.525330 48.969135,130.717804 
	C46.291611,127.290771 46.318993,130.648880 45.321198,132.306519 
	C39.379765,131.187241 38.204868,126.210487 42.759422,121.185600 
z"/>
<path fill="#DF221C" opacity="1.000000" stroke="none" 
	d="
M58.184132,142.540543 
	C58.048538,143.621429 58.009235,144.349411 57.949631,145.441437 
	C52.148560,145.267456 47.895290,140.943451 46.110641,133.341583 
	C46.335289,132.755447 46.488960,132.545792 46.972137,132.128113 
	C48.055397,131.666779 48.813820,131.671555 49.933365,131.998352 
	C53.310303,135.191696 56.001095,138.526428 58.184132,142.540543 
z"/>
<path fill="#AF222E" opacity="1.000000" stroke="none" 
	d="
M25.373974,47.279625 
	C26.467640,46.900059 27.264063,46.943462 28.459213,46.997986 
	C33.962418,49.401302 34.393471,54.186592 34.896309,59.295860 
	C34.741009,59.925350 34.639980,60.166309 34.318588,60.731373 
	C34.098225,61.055477 34.024933,61.046684 34.046223,61.076836 
	C33.482067,61.572361 33.176338,62.335148 32.222946,62.822021 
	C32.007095,63.005241 31.602955,62.990650 31.400806,62.987682 
	C29.158016,57.890675 27.117374,52.796635 25.373974,47.279625 
z"/>
<path fill="#D42729" opacity="1.000000" stroke="none" 
	d="
M25.834366,46.561119 
	C25.671217,46.856659 25.407953,46.882526 25.279240,46.912933 
	C23.920458,46.377422 22.690390,45.811504 21.280125,44.957455 
	C21.155321,43.844353 21.074697,42.981388 21.292448,42.201759 
	C21.870197,40.133198 23.583117,39.392670 25.472712,39.303608 
	C26.995008,39.231857 28.651669,39.803574 29.212021,41.299801 
	C30.289223,44.176113 26.833616,44.435474 25.834366,46.561119 
z"/>
<path fill="#D42729" opacity="1.000000" stroke="none" 
	d="
M46.959145,132.885895 
	C46.693977,133.026169 46.436584,133.005753 46.309097,132.985413 
	C45.995945,132.901672 45.810276,132.838272 45.351040,132.666138 
	C44.594578,130.845352 41.313042,130.333832 42.939877,127.751175 
	C43.797131,126.390259 45.216862,125.960953 46.780933,126.068115 
	C49.607777,126.261810 50.017937,128.359924 50.393829,130.968872 
	C50.353878,131.505447 50.201683,131.635239 49.765209,131.860962 
	C48.681530,132.084778 47.948784,132.403351 46.959145,132.885895 
z"/>
<path fill="#B02330" opacity="1.000000" stroke="none" 
	d="
M26.965246,67.189056 
	C27.066015,67.551453 26.864157,67.898911 26.359322,68.190079 
	C26.258438,67.813904 26.460527,67.494011 26.965246,67.189056 
z"/>
<path fill="#96B9D5" opacity="1.000000" stroke="none" 
	d="
M29.681953,64.990631 
	C29.801422,65.223000 29.603945,65.484009 29.135403,65.830399 
	C29.093431,65.664009 29.260323,65.365166 29.681953,64.990631 
z"/>
<path fill="#000000" opacity="0" stroke="none" 
	d="
M122.121368,127.603584 
	C115.007629,130.307251 108.407364,128.937119 101.990356,125.974487 
	C99.461990,124.807175 97.120911,123.158234 94.511879,122.258018 
	C89.652725,120.581413 88.340721,118.031906 91.812584,113.473373 
	C92.578255,112.321342 93.535851,111.747581 94.108749,110.455170 
	C94.648468,109.379021 95.225052,108.707420 95.910255,107.714043 
	C99.780655,105.417465 102.069748,101.946579 105.189499,98.860138 
	C105.565262,98.439255 105.714539,98.270187 106.108971,97.868622 
	C108.226311,96.025452 110.183380,94.537231 112.697632,93.264259 
	C115.615700,91.052620 116.890190,91.583984 118.485970,94.751968 
	C121.898048,101.525742 124.477882,108.520073 125.844299,115.925148 
	C126.629242,120.179001 125.079727,124.003235 122.121368,127.603584 
z"/>
<path fill="#000000" opacity="0" stroke="none" 
	d="
M34.505413,60.110008 
	C32.480900,55.937191 30.741060,51.840275 28.929579,47.376232 
	C33.123749,40.684845 33.072227,40.152637 27.804651,33.976505 
	C26.020035,31.884079 28.128735,30.444204 28.883371,28.435699 
	C34.855259,23.001925 41.120174,24.890326 47.479176,26.842941 
	C52.999699,28.538092 57.720745,31.766495 62.965576,34.659958 
	C55.374748,40.524456 48.184433,46.782539 41.158440,53.772247 
	C39.333252,55.442619 37.775166,56.885811 36.087769,58.625183 
	C35.646408,59.414398 35.382984,59.952366 34.505413,60.110008 
z"/>
<path fill="#000000" opacity="0" stroke="none" 
	d="
M58.468651,142.926788 
	C54.049061,141.030075 51.168026,138.140915 49.897331,133.393036 
	C49.555981,132.599609 49.522118,132.139893 50.020073,131.535400 
	C50.360748,131.408783 50.442333,131.433197 50.474201,131.404419 
	C54.579956,127.244743 53.530529,123.021973 47.365303,120.085175 
	C47.019226,116.877167 47.026367,113.742867 47.093105,110.204689 
	C47.196922,109.595375 47.241142,109.389946 47.453579,108.917610 
	C48.029568,108.525917 48.439220,108.512024 49.519737,109.232880 
	C50.377655,110.180367 50.543533,110.535553 50.782623,111.168503 
	C50.979748,111.795708 51.099106,112.150482 51.366596,112.750870 
	C51.769352,113.510498 52.098217,113.978928 52.735603,114.586426 
	C53.087105,114.946701 53.208885,115.110321 53.456779,115.552361 
	C53.866058,116.376884 54.209476,116.873993 54.974632,117.428818 
	C55.381897,117.773537 55.537407,117.922340 55.930115,118.290237 
	C60.856312,119.991165 65.039185,117.434036 69.473701,116.891624 
	C72.410065,116.532471 75.218330,113.995163 78.547104,116.508995 
	C82.905312,118.836784 83.436653,121.341026 80.444534,125.109177 
	C74.483429,132.616318 69.561790,141.247375 58.468651,142.926788 
z"/>
<path fill="#000000" opacity="0" stroke="none" 
	d="
M9.399677,90.102295 
	C10.905574,82.560432 16.885019,78.693367 22.389063,74.000954 
	C27.017048,74.456551 28.412321,78.288811 30.126547,81.465744 
	C32.155956,85.226799 34.423344,88.768112 37.339172,92.327591 
	C37.766918,92.735962 37.929379,92.908775 38.259392,93.394577 
	C39.325039,96.288887 42.171055,98.084587 41.267189,101.577797 
	C32.612747,102.491058 24.485073,101.049385 16.729980,97.833801 
	C13.398173,96.452293 10.404064,94.330757 9.399677,90.102295 
z"/>
<path fill="#000000" opacity="0" stroke="none" 
	d="
M95.623871,11.766053 
	C102.119026,15.836711 103.638435,22.349585 104.889473,28.823349 
	C105.665833,32.840805 105.624565,37.016266 105.876633,41.559120 
	C101.620026,41.302986 100.997643,37.036919 98.496788,34.647491 
	C96.986618,33.204617 96.346428,30.889988 93.718582,30.086727 
	C87.332832,31.314703 81.492012,33.503414 75.221840,33.688293 
	C73.621025,33.735497 72.022659,34.608200 70.226692,33.170410 
	C74.305069,24.903236 79.742882,17.877163 87.559547,13.042546 
	C89.833145,11.636321 92.319939,9.990411 95.623871,11.766053 
z"/>
<path fill="#000000" opacity="0" stroke="none" 
	d="
M112.807739,52.478081 
	C121.948196,51.553711 130.291641,53.603264 138.237000,57.630253 
	C140.093597,58.571232 141.596054,59.695812 142.638000,61.851162 
	C143.732101,68.977829 139.052521,72.931458 134.495422,76.697891 
	C131.523499,79.154167 127.970245,80.907082 124.313309,82.988541 
	C122.465546,81.409538 122.962494,79.546921 124.287415,78.601982 
	C127.359947,76.410637 125.848473,74.378563 124.552284,72.233505 
	C122.399849,68.671432 119.738594,65.467148 117.118591,61.819344 
	C116.391594,60.823536 115.849953,60.116558 114.827103,59.401604 
	C114.355652,59.074200 114.173813,58.929241 113.754135,58.521503 
	C113.380501,58.061680 113.244713,57.864643 112.941742,57.346470 
	C112.293831,55.626118 111.959084,54.221035 112.807739,52.478081 
z"/>
<path fill="#AFCDE2" opacity="1.000000" stroke="none" 
	d="
M87.044647,48.265667 
	C85.227577,46.968426 83.743546,45.789513 82.134109,44.317406 
	C81.667709,43.667397 81.508316,43.238674 81.475037,42.391548 
	C81.345421,41.555767 81.382133,41.085880 81.712227,40.310143 
	C82.374741,39.469269 82.789291,38.894527 83.192017,37.882896 
	C86.058723,34.044643 88.853165,30.621826 93.647598,29.121002 
	C99.304993,32.767708 101.871101,38.525406 105.142639,43.732937 
	C105.680435,44.588978 105.677963,45.681961 104.690117,46.384609 
	C103.784920,47.028473 102.781685,46.884109 101.901024,46.341171 
	C100.915810,45.733784 100.265816,44.711037 99.336899,44.027248 
	C96.061806,41.616405 93.902161,41.927952 91.363625,45.167999 
	C90.279152,46.552162 89.672798,48.508095 87.044647,48.265667 
z"/>
<path fill="#5373A4" opacity="1.000000" stroke="none" 
	d="
M73.803741,103.326706 
	C77.259514,102.539970 80.505882,101.860023 84.166145,101.174713 
	C86.452423,101.902786 88.339378,102.620872 88.618614,105.428719 
	C88.442429,106.311699 88.306740,106.988670 87.890442,107.105865 
	C79.108406,109.578308 73.820061,119.168945 63.356888,118.933548 
	C62.735374,118.841743 62.492542,118.777016 61.945015,118.492859 
	C60.146362,115.456474 61.663174,113.557350 63.765064,112.072472 
	C65.385376,110.927811 66.850830,109.697510 68.160568,107.783371 
	C68.397491,107.252411 68.488464,107.040161 68.737564,106.524567 
	C69.050888,106.059601 69.206085,105.897980 69.943741,105.438828 
	C71.323311,104.867859 72.140511,104.637314 72.759254,103.768784 
	C72.715981,103.462173 72.936996,103.620895 72.857605,103.731384 
	C73.117760,103.840637 73.389793,103.704514 73.803741,103.326706 
z"/>
<path fill="#8FACCB" opacity="1.000000" stroke="none" 
	d="
M45.477444,88.855637 
	C45.174747,92.863472 44.648991,96.547829 44.028183,100.644501 
	C40.068916,100.555557 40.029442,96.326759 37.301052,94.235207 
	C37.067757,93.979248 37.008545,93.995361 37.018295,93.966270 
	C35.966152,92.100098 34.535393,90.470848 33.907646,87.982697 
	C34.660690,82.107346 34.278786,76.451004 36.788750,70.847824 
	C37.531040,69.296738 38.523804,68.785576 40.203033,68.691795 
	C40.913933,68.751945 41.192329,68.806786 41.849083,69.045425 
	C44.500854,71.329323 44.316692,73.879913 43.419926,76.461235 
	C41.900726,80.834229 42.695976,84.804619 45.477444,88.855637 
z"/>
<path fill="#9DB9D2" opacity="1.000000" stroke="none" 
	d="
M45.823971,88.832268 
	C41.099178,87.363922 39.194374,83.666122 40.390614,78.571075 
	C40.992264,76.008507 42.166065,73.573509 42.037354,70.438957 
	C43.901100,66.650894 46.771809,66.419685 50.367470,67.773911 
	C49.109005,74.907784 47.528221,81.696594 45.823971,88.832268 
z"/>
<path fill="#C1DAE9" opacity="1.000000" stroke="none" 
	d="
M77.848663,45.473129 
	C79.715935,46.684265 81.289772,48.013988 83.034027,49.682335 
	C82.614487,50.438606 82.431419,51.091461 82.094139,52.043915 
	C81.174904,54.626720 81.506912,56.977589 81.525421,59.288429 
	C81.550217,62.385975 80.826462,64.532410 78.153412,66.903847 
	C75.971237,68.839806 73.584755,72.282608 74.271149,76.194702 
	C74.531349,77.677742 74.670242,79.158066 73.884033,80.918121 
	C73.463112,81.382477 73.259621,81.538879 72.688644,81.828545 
	C71.505753,82.085526 70.753136,81.907921 69.710442,81.283432 
	C68.958549,80.745804 68.582001,80.377792 68.032784,79.641357 
	C67.513924,78.055855 66.840874,76.919678 66.644363,75.256012 
	C69.290100,66.230591 72.626793,57.818932 75.425209,48.870628 
	C75.500397,48.310844 75.527771,48.088516 75.621803,47.540119 
	C75.863060,46.809967 76.101501,46.449310 76.689400,45.975574 
	C77.158981,45.736858 77.357101,45.664288 77.848663,45.473129 
z"/>
<path fill="#A3C3DE" opacity="1.000000" stroke="none" 
	d="
M86.828323,48.418285 
	C89.688789,45.620590 89.738586,40.193207 94.486755,39.605370 
	C98.830345,39.067623 100.284981,44.133755 105.289757,46.147640 
	C101.818764,39.646362 98.525909,34.760551 94.221420,30.149632 
	C93.589340,29.272236 93.949806,28.816593 94.757629,28.287933 
	C99.451683,31.898489 102.084320,36.974285 105.500549,41.843163 
	C105.851151,43.404186 105.899330,44.810936 105.860916,46.631805 
	C105.016624,49.268456 103.270241,49.640961 100.850967,49.433983 
	C97.914719,47.840359 95.323959,44.964710 92.662766,49.846481 
	C91.451927,50.632240 90.456635,50.474503 89.105957,50.276527 
	C88.144791,49.681805 87.544914,49.185520 86.828323,48.418285 
z"/>
<path fill="#7FA4C6" opacity="1.000000" stroke="none" 
	d="
M53.264015,101.847420 
	C46.932587,102.977356 46.932587,102.977356 47.895638,97.347237 
	C49.335285,95.390770 51.107033,94.608376 53.038452,94.045471 
	C56.724495,92.971169 59.880676,91.510788 61.714050,87.555206 
	C63.346989,84.032066 66.684296,84.410973 70.149124,86.118088 
	C70.640007,86.562561 70.803551,86.775162 71.111053,87.363449 
	C70.741554,92.641846 64.296799,99.514526 59.315632,100.468399 
	C57.391422,100.836891 55.385803,100.775650 53.264015,101.847420 
z"/>
<path fill="#325CA1" opacity="1.000000" stroke="none" 
	d="
M94.621353,28.101452 
	C94.750191,28.602631 94.459488,29.047815 94.049294,29.733177 
	C91.022400,32.678585 88.114998,35.383808 85.060272,38.375645 
	C84.670433,39.366840 84.126137,39.776184 83.179993,40.234703 
	C80.484406,40.689114 78.865982,39.137424 77.417587,37.762394 
	C75.639816,36.074680 73.688568,35.362686 71.036057,35.209137 
	C69.857819,34.720306 68.873520,34.432953 69.721146,33.002747 
	C76.733948,32.069485 83.283234,30.246786 89.846756,28.541668 
	C91.325951,28.157393 92.749252,28.181898 94.621353,28.101452 
z"/>
<path fill="#A5CADF" opacity="1.000000" stroke="none" 
	d="
M68.149612,74.647552 
	C68.352417,76.030609 68.673576,77.101059 69.009689,78.508400 
	C69.145851,79.040924 69.267059,79.236557 69.441772,79.774353 
	C69.466995,80.346718 69.438690,80.576920 69.179779,81.069977 
	C67.685783,81.924416 66.713020,81.171524 65.368782,80.515434 
	C64.244347,80.009804 63.642475,79.270134 62.387039,79.011810 
	C61.617481,78.746750 61.182629,78.565887 60.414650,78.236183 
	C57.592247,77.064957 54.517014,77.238541 52.648285,74.218445 
	C53.127865,71.474777 53.809788,69.050674 54.733562,66.347122 
	C58.399593,62.964375 60.664196,65.231384 63.170113,67.961861 
	C63.675068,68.267708 63.879581,68.383926 64.392685,68.667892 
	C65.077896,69.105392 65.442261,69.390701 66.045181,69.923538 
	C67.601410,71.242172 67.801666,72.851204 68.149612,74.647552 
z"/>
<path fill="#89B0CF" opacity="1.000000" stroke="none" 
	d="
M70.295700,86.721024 
	C66.330299,86.006714 64.248825,87.015839 62.192570,90.683418 
	C59.520180,95.449951 54.035141,96.403702 48.439537,96.997192 
	C48.139267,95.514435 48.243637,94.030327 48.547180,92.232796 
	C52.907211,89.109749 57.767574,87.316063 59.943012,81.960884 
	C60.883793,79.645012 64.010475,80.123322 66.245964,80.985313 
	C67.453522,81.450943 68.564026,82.258507 70.082115,83.080750 
	C70.729340,83.791489 70.930389,84.294502 70.966980,85.263123 
	C70.821358,85.930542 70.710655,86.184372 70.295700,86.721024 
z"/>
<path fill="#87B2D2" opacity="1.000000" stroke="none" 
	d="
M92.287399,95.560760 
	C91.317062,96.089417 90.619110,96.346313 89.550629,96.636459 
	C87.021652,94.706215 83.065491,94.265350 82.713989,90.887527 
	C82.129868,85.274185 77.749237,80.115044 80.856773,73.747032 
	C82.778450,71.519043 84.726768,72.188377 87.039238,73.067024 
	C87.587708,73.512764 87.770241,73.731056 88.114166,74.340370 
	C88.518227,75.810966 88.451378,76.928772 88.770973,78.398361 
	C88.322021,81.825844 88.536163,84.391083 91.388062,86.571777 
	C94.361404,88.845306 94.647903,92.046165 92.287399,95.560760 
z"/>
<path fill="#709ABF" opacity="1.000000" stroke="none" 
	d="
M53.435989,102.198624 
	C53.560616,99.829933 55.696095,99.936485 57.344658,99.392197 
	C62.982883,97.530663 66.768990,93.541595 69.937943,88.383163 
	C72.965889,86.722733 74.485817,89.724167 77.138420,90.426117 
	C78.129745,90.785004 78.721848,91.156013 79.584236,91.760017 
	C80.214882,92.282646 80.553459,92.606102 81.060699,93.238876 
	C81.475182,94.889709 82.545273,95.985207 82.295151,97.759239 
	C81.355545,98.352943 80.548996,98.630493 79.415161,98.878815 
	C74.276543,94.834702 70.231316,96.663628 66.184082,100.716248 
	C61.992405,102.140091 57.912960,101.972069 53.435989,102.198624 
z"/>
<path fill="#96B9D5" opacity="1.000000" stroke="none" 
	d="
M70.212204,83.696716 
	C68.584305,83.499954 67.184540,82.974380 65.769760,82.492897 
	C63.170322,81.608238 61.016754,82.077995 60.232738,84.960892 
	C58.725517,90.503067 54.756626,92.080025 49.171638,91.934830 
	C48.967712,90.155945 49.189068,88.392532 49.625832,86.317383 
	C54.257935,84.164879 55.497356,78.545822 60.663418,77.107391 
	C61.444233,77.024734 61.884560,77.025970 62.655136,77.027405 
	C63.678722,77.801582 64.622208,78.173752 65.752098,78.809204 
	C66.823044,79.590378 67.668098,80.171692 68.780190,80.906769 
	C70.182007,81.435585 70.648575,82.208679 70.212204,83.696716 
z"/>
<path fill="#99C0DB" opacity="1.000000" stroke="none" 
	d="
M79.874962,94.178116 
	C79.359924,93.939812 79.179268,93.796463 78.954575,93.449532 
	C78.914062,92.512215 78.768745,91.747826 78.598663,90.586258 
	C78.699020,86.840034 77.084206,83.806297 76.772629,80.574211 
	C76.507561,77.824600 75.137466,74.476974 79.472527,72.822350 
	C80.464508,72.845428 80.989555,73.033646 81.739746,73.678574 
	C80.202896,79.849113 83.136848,85.109268 84.582947,90.395203 
	C85.027290,92.019417 88.972755,92.747887 89.101883,96.281754 
	C87.697258,97.077492 86.214401,97.485275 84.399216,97.862091 
	C82.694382,96.743385 81.372231,95.599709 79.874962,94.178116 
z"/>
<path fill="#3A60A2" opacity="1.000000" stroke="none" 
	d="
M117.558266,59.866409 
	C120.729851,64.071594 123.486465,68.162933 126.441437,72.105598 
	C128.597885,74.982819 129.312027,77.438568 125.713646,79.743813 
	C124.787460,80.337158 124.217598,81.486717 123.716621,82.691376 
	C123.949196,83.001999 124.017601,83.002853 124.017700,82.968643 
	C123.604500,83.387833 123.029320,83.488007 122.290352,83.858917 
	C120.451859,84.470444 119.307381,87.720619 117.021500,84.630569 
	C115.061089,80.490097 119.782967,79.809708 120.427025,76.812851 
	C120.596771,76.249474 120.665375,76.024849 120.902878,75.495293 
	C122.804169,73.792267 122.145134,72.320450 121.161850,70.886353 
	C119.312462,68.189095 117.406303,65.530228 115.730881,62.337147 
	C115.723442,61.488117 115.855606,61.023251 116.309647,60.293343 
	C116.775696,59.900402 117.001999,59.794621 117.558266,59.866409 
z"/>
<path fill="#ABD3E6" opacity="1.000000" stroke="none" 
	d="
M35.431381,69.786278 
	C35.112743,61.485371 45.465950,52.370571 55.481293,51.992607 
	C55.832470,52.558578 55.774235,53.127136 55.499527,53.893623 
	C48.911583,56.851959 43.664898,60.667038 42.017269,68.360886 
	C41.631950,68.852577 41.437447,69.019119 40.879341,69.324631 
	C38.898514,69.231995 37.414375,70.245544 35.431381,69.786278 
z"/>
<path fill="#A0C0D9" opacity="1.000000" stroke="none" 
	d="
M60.745415,76.770721 
	C59.362774,79.446434 57.737961,81.880638 56.075443,84.288811 
	C54.700294,86.280731 52.882370,87.026451 50.188061,86.057510 
	C49.909103,82.045517 51.359547,78.361076 52.286690,74.219704 
	C55.321754,74.171730 58.071514,74.831596 60.745415,76.770721 
z"/>
<path fill="#4773A7" opacity="1.000000" stroke="none" 
	d="
M121.844879,76.914841 
	C121.481270,80.089935 118.615181,81.323341 117.112411,83.990631 
	C113.356819,79.394592 109.769051,74.492714 106.033783,69.281731 
	C105.886276,68.972633 106.050392,69.081108 106.147766,69.094971 
	C107.202362,67.633362 107.946533,65.893250 110.508286,66.028122 
	C114.472664,68.453041 115.557953,73.090897 119.588020,75.433792 
	C120.622101,75.684914 121.144272,76.131378 121.844879,76.914841 
z"/>
<path fill="#466FA1" opacity="1.000000" stroke="none" 
	d="
M61.699722,105.254959 
	C64.736969,104.658394 67.448364,104.253685 70.578293,103.883301 
	C71.385857,104.315979 71.531799,104.789307 71.226936,105.668350 
	C71.019226,105.999100 71.007004,106.005775 71.002197,106.010674 
	C70.833267,106.175339 70.669144,106.335098 70.264732,106.740417 
	C70.024437,106.985962 70.012230,107.008148 70.003204,107.017029 
	C66.234726,111.110977 60.247688,112.857536 58.027870,118.620529 
	C57.520203,119.938522 55.976177,120.189056 54.266968,119.263580 
	C53.968697,119.038025 53.996994,119.004646 53.978920,119.016464 
	C53.335911,118.232231 53.119499,117.192589 52.194817,116.238602 
	C51.971001,116.035393 51.999405,116.003365 51.982948,116.015808 
	C51.521854,115.397194 51.259571,114.689835 51.053993,113.563538 
	C52.341324,107.759094 57.469788,107.422539 61.699722,105.254959 
z"/>
<path fill="#6796C1" opacity="1.000000" stroke="none" 
	d="
M41.226746,53.947536 
	C43.726971,48.016197 49.614197,44.804371 53.663250,39.926907 
	C55.959282,37.161125 58.792007,35.473564 62.775227,35.046951 
	C63.764877,37.992710 61.367401,39.943520 60.221813,42.667152 
	C58.302372,45.696655 53.864391,42.765266 52.414509,46.725651 
	C50.676182,47.958019 49.178238,48.986320 47.145584,49.744431 
	C44.915009,51.009834 43.815861,53.214306 41.226746,53.947536 
z"/>
<path fill="#79A2C8" opacity="1.000000" stroke="none" 
	d="
M92.337280,95.856384 
	C91.692856,92.803322 93.017990,89.550552 88.617920,87.616470 
	C86.169952,86.540451 87.082939,82.562347 86.994980,79.366959 
	C88.184654,78.210915 89.181358,78.745293 90.448364,79.585739 
	C91.666756,80.358208 92.709747,80.781952 93.792358,81.759544 
	C95.339180,83.286263 97.420998,83.393448 98.783188,85.216614 
	C99.401443,86.129555 99.524620,86.828201 99.476326,87.926239 
	C99.460037,88.527695 99.448181,88.767715 99.387985,89.362854 
	C99.263000,89.942390 99.186371,90.166801 98.917343,90.687202 
	C97.264198,92.402573 96.780754,94.721367 94.252029,95.517754 
	C93.493477,95.668938 93.076508,95.774590 92.337280,95.856384 
z"/>
<path fill="#7BABCC" opacity="1.000000" stroke="none" 
	d="
M93.409439,83.267029 
	C91.976746,82.967789 90.849304,82.856842 90.109200,81.371307 
	C89.870354,79.080254 87.984642,77.556671 88.537315,75.026405 
	C88.568031,74.389656 88.586037,74.133415 88.712372,73.504410 
	C90.465851,70.822411 90.832329,68.050255 91.437798,65.406639 
	C91.842438,63.639870 92.495567,62.394642 94.692017,61.890137 
	C95.969055,62.697830 96.863808,63.562271 97.884552,64.714462 
	C99.570763,67.550278 98.295486,69.927277 97.514580,72.706818 
	C96.899750,75.119507 96.392036,77.096642 96.669296,79.327751 
	C96.908524,81.252823 96.535484,83.414886 93.409439,83.267029 
z"/>
<path fill="#89B4D3" opacity="1.000000" stroke="none" 
	d="
M104.942596,50.678761 
	C105.132652,53.071808 105.019257,55.081165 104.811707,57.512558 
	C103.498924,59.837849 101.657425,60.508873 99.125694,60.585663 
	C96.566338,58.322910 94.388161,56.043037 92.057846,53.471436 
	C91.872223,50.501736 93.888924,50.625919 95.647141,50.505352 
	C98.639542,50.300148 101.597595,48.360943 104.942596,50.678761 
z"/>
<path fill="#587EB1" opacity="1.000000" stroke="none" 
	d="
M112.502380,84.760773 
	C114.569855,86.743599 115.813850,88.345131 112.199944,89.339478 
	C110.626938,89.772285 109.139420,90.515816 107.269737,91.277817 
	C103.959183,92.596725 102.197250,90.546249 100.122131,88.526566 
	C100.131248,86.059570 100.330605,84.018211 102.263496,82.197319 
	C106.593140,79.871803 109.215851,82.765694 112.502380,84.760773 
z"/>
<path fill="#5783AE" opacity="1.000000" stroke="none" 
	d="
M66.345718,100.978516 
	C66.242302,100.167809 66.524033,99.387840 66.897392,98.654526 
	C70.400955,91.773178 74.193352,91.627571 78.992638,98.515953 
	C74.983040,99.576691 70.878212,100.303795 66.345718,100.978516 
z"/>
<path fill="#B6D7E8" opacity="1.000000" stroke="none" 
	d="
M41.259033,68.135086 
	C41.847046,59.981934 46.669006,55.047295 54.876617,54.078758 
	C55.063168,54.929020 54.843288,55.766491 54.382149,56.823490 
	C51.250957,60.049332 48.556194,63.215328 46.017052,66.984802 
	C44.463135,68.004189 43.119926,68.671814 41.259033,68.135086 
z"/>
<path fill="#A2222A" opacity="1.000000" stroke="none" 
	d="
M100.695572,87.773331 
	C102.767120,89.051102 104.531853,90.096504 106.611496,91.289658 
	C106.974777,92.188728 107.023148,92.940056 107.073860,94.068817 
	C108.403275,95.619667 108.091354,96.943649 107.180573,98.643677 
	C106.930908,98.987633 106.994553,98.996185 106.990685,98.964310 
	C106.657547,99.288071 106.260162,99.523392 105.430305,99.624580 
	C102.699402,97.393532 100.061607,96.012894 96.342987,97.096268 
	C95.440742,96.749741 94.874695,96.422539 94.109550,95.829308 
	C94.980957,93.713562 96.051468,91.863838 97.446465,89.929779 
	C98.035599,90.037743 98.307709,90.218742 98.589073,90.385727 
	C98.773743,89.745148 98.804420,90.516876 98.013779,90.007095 
	C97.792648,89.843880 97.657776,89.377396 97.783768,89.169853 
	C98.561035,88.183197 99.126976,87.255272 100.695572,87.773331 
z"/>
<path fill="#A3C3DE" opacity="1.000000" stroke="none" 
	d="
M82.305847,73.908882 
	C81.563690,73.999092 81.115837,73.993256 80.332199,73.984421 
	C78.942741,72.686531 79.429825,71.526230 80.593323,70.146240 
	C83.509285,69.069252 83.469032,66.900345 83.493187,64.743210 
	C83.533066,61.182842 83.169235,57.575798 84.819397,53.856525 
	C85.173470,53.379230 85.349815,53.215481 85.858681,52.911293 
	C87.091820,53.564449 87.992439,54.358044 89.017044,55.427917 
	C89.051361,61.670502 88.759277,67.620544 87.348152,73.783768 
	C85.524216,73.976143 84.062187,73.894493 82.305847,73.908882 
z"/>
<path fill="#A92A39" opacity="1.000000" stroke="none" 
	d="
M101.151093,87.700348 
	C100.172142,88.243935 99.341904,88.482155 98.210716,88.841339 
	C97.984901,88.243599 98.060036,87.524879 98.176041,86.445724 
	C96.083969,81.102097 98.594627,76.929314 100.705582,72.293854 
	C101.143196,71.471138 101.533813,71.128639 102.419403,70.890076 
	C103.504539,71.691811 104.193352,72.502037 104.955948,73.629471 
	C106.507790,77.091682 106.707893,80.019180 103.285080,82.680840 
	C102.417343,84.450981 101.858574,85.922974 101.151093,87.700348 
z"/>
<path fill="#4B74A7" opacity="1.000000" stroke="none" 
	d="
M103.371033,82.989273 
	C103.611351,80.221649 104.246582,77.464317 104.955780,74.326843 
	C108.451935,76.786209 110.407898,80.725540 112.836624,84.668480 
	C109.519768,85.730202 106.945511,82.996712 103.371033,82.989273 
z"/>
<path fill="#99C0DB" opacity="1.000000" stroke="none" 
	d="
M86.984192,74.306702 
	C87.308578,68.157768 85.975845,62.086567 88.974350,56.075130 
	C90.094109,56.561329 91.047173,57.418468 92.143028,58.565208 
	C92.363472,63.781109 90.519348,68.469833 90.245209,73.691719 
	C90.000656,74.000557 89.965797,74.473099 89.953697,74.709702 
	C89.296310,75.572945 88.537186,75.725037 87.336105,75.270554 
	C86.987556,75.053368 86.982155,74.555595 86.984192,74.306702 
z"/>
<path fill="#5E89B4" opacity="1.000000" stroke="none" 
	d="
M61.584988,105.008446 
	C59.724384,108.680824 55.791424,110.202988 52.230927,112.744965 
	C51.849895,113.126625 51.704731,113.269707 51.254028,113.402618 
	C50.624744,113.144676 50.318592,112.876793 49.821167,112.366486 
	C49.343533,111.839005 49.066593,111.541428 48.617950,110.993881 
	C48.453384,110.737274 48.195179,110.537865 48.214554,110.375893 
	C49.938751,109.496498 49.602367,107.035301 51.708160,106.150787 
	C55.022583,105.556412 58.083492,105.255104 61.584988,105.008446 
z"/>
<path fill="#9AA9C5" opacity="1.000000" stroke="none" 
	d="
M105.411514,50.759029 
	C100.915581,50.857582 96.725296,51.752781 92.222504,52.930649 
	C90.943115,52.368984 89.980515,51.558262 88.881294,50.462814 
	C89.602318,49.829872 90.459969,49.481651 91.658142,49.061790 
	C94.171478,47.213139 96.505257,46.209435 99.656296,47.744438 
	C101.732803,48.005138 103.493172,48.221252 105.443375,47.200298 
	C105.708534,48.182487 105.642761,49.319046 105.411514,50.759029 
z"/>
<path fill="#C1DAE9" opacity="1.000000" stroke="none" 
	d="
M45.458237,66.637718 
	C46.252182,61.872887 48.740078,58.518909 53.782265,57.096390 
	C53.292046,59.834099 52.443207,62.625179 51.361126,65.678024 
	C49.545361,67.239151 47.712246,67.126434 45.458237,66.637718 
z"/>
<path fill="#4A75AF" opacity="1.000000" stroke="none" 
	d="
M70.910477,35.375496 
	C76.158310,32.375595 79.199333,36.056774 82.553345,39.705269 
	C82.946846,40.133869 83.133698,40.312023 82.997421,40.703613 
	C82.400436,40.984715 82.196091,41.142445 81.996338,41.577545 
	C81.809059,42.038555 81.686699,42.312252 81.146301,42.751728 
	C77.520302,40.499439 74.312340,38.081379 70.910477,35.375496 
z"/>
<path fill="#97B1CE" opacity="1.000000" stroke="none" 
	d="
M87.844330,106.410004 
	C86.899117,104.650032 85.899544,103.262154 84.740005,101.521820 
	C87.436424,100.446472 90.292801,99.723579 93.532593,98.996216 
	C92.781853,101.811935 91.647705,104.632126 90.281631,107.702606 
	C88.762352,108.593544 88.257004,107.724792 87.844330,106.410004 
z"/>
<path fill="#6F93BE" opacity="1.000000" stroke="none" 
	d="
M77.995934,45.158798 
	C78.142105,45.354542 78.155403,45.671425 78.131821,45.828243 
	C77.847404,46.210922 77.587051,46.437328 77.125793,46.826782 
	C76.924431,46.989300 76.974052,46.939804 76.948036,46.916328 
	C76.322617,47.905403 76.028580,49.200768 74.222572,49.379219 
	C72.720345,44.902000 67.908340,43.965126 65.454887,40.331566 
	C66.107712,37.401443 67.291290,36.427757 69.758247,38.569450 
	C72.351280,40.820602 75.144196,42.841530 77.995934,45.158798 
z"/>
<path fill="#89B4D3" opacity="1.000000" stroke="none" 
	d="
M90.335938,73.853951 
	C89.230095,68.974335 89.108841,64.026276 92.021423,59.133221 
	C93.154579,59.657398 94.023338,60.459991 94.983200,61.547989 
	C91.961197,65.181229 93.209671,70.146423 90.335938,73.853951 
z"/>
<path fill="#D42729" opacity="1.000000" stroke="none" 
	d="
M96.001038,97.269409 
	C99.968742,92.552589 102.804794,92.892281 104.801788,98.498619 
	C104.818192,99.456284 104.649033,99.982430 103.933823,100.699104 
	C100.649170,101.807510 97.895294,102.068680 96.151199,98.244194 
	C95.988419,97.846916 95.995300,97.461876 96.001038,97.269409 
z"/>
<path fill="#89B0CF" opacity="1.000000" stroke="none" 
	d="
M64.357620,69.745499 
	C60.823593,69.717926 59.700840,64.909828 55.370461,66.054520 
	C55.027699,65.528915 55.079983,64.990166 55.279160,64.222687 
	C57.790985,62.595467 59.103695,60.006310 61.710747,58.356960 
	C62.586334,57.362900 63.232498,56.631958 64.595718,56.310867 
	C65.212631,56.293888 65.459442,56.331516 66.034157,56.542923 
	C66.524338,56.898693 66.686615,57.080692 67.006042,57.588013 
	C67.691628,61.585419 63.249454,64.231903 64.987823,68.515327 
	C64.824974,69.078064 64.722054,69.291466 64.357620,69.745499 
z"/>
<path fill="#79A2C8" opacity="1.000000" stroke="none" 
	d="
M65.132797,40.282036 
	C68.703392,42.289047 73.945312,42.632763 74.012329,48.752811 
	C74.317978,50.297733 73.661003,50.857456 72.361923,51.208755 
	C71.583931,50.975941 71.213104,50.698780 70.737251,50.036293 
	C70.071159,45.907341 65.806549,46.057205 63.934532,43.246563 
	C64.195137,42.138878 64.569244,41.346050 65.132797,40.282036 
z"/>
<path fill="#96B9D5" opacity="1.000000" stroke="none" 
	d="
M71.735901,48.692890 
	C71.994423,49.473026 71.994659,49.943787 72.090248,51.135288 
	C72.155647,52.106636 72.125694,52.357239 71.946960,52.958542 
	C71.195190,54.216053 70.352020,54.733299 68.890495,54.842430 
	C66.152328,52.740520 63.394302,51.095886 61.730499,48.065552 
	C62.009655,47.149754 62.157730,46.580799 62.533264,45.820793 
	C66.338821,44.418995 68.961189,46.233578 71.735901,48.692890 
z"/>
<path fill="#709ABF" opacity="1.000000" stroke="none" 
	d="
M102.665512,70.607857 
	C102.546555,71.049347 102.342896,71.275970 102.060684,71.741058 
	C100.512733,73.578728 98.997589,74.896698 96.338974,73.327782 
	C95.699997,70.346352 97.103470,68.118637 97.934074,65.365326 
	C99.961594,66.399780 101.198814,68.400429 102.665512,70.607857 
z"/>
<path fill="#7E9ABB" opacity="1.000000" stroke="none" 
	d="
M98.886406,60.874947 
	C99.778984,58.351677 101.768761,57.982868 104.327637,57.950874 
	C104.427490,60.294895 104.137436,62.655197 103.827759,65.418655 
	C101.689133,64.801140 100.501953,62.827675 98.886406,60.874947 
z"/>
<path fill="#99C0DB" opacity="1.000000" stroke="none" 
	d="
M47.274765,49.915184 
	C48.020416,48.685200 49.200783,47.475479 50.649902,46.096355 
	C53.318363,44.912743 55.739132,43.074432 58.053459,46.607769 
	C57.955513,47.651459 57.839485,48.196198 57.495728,48.907341 
	C54.011497,48.580872 50.907635,49.781082 47.274765,49.915184 
z"/>
<path fill="#89B0CF" opacity="1.000000" stroke="none" 
	d="
M72.085724,48.759697 
	C69.109207,48.050098 66.224213,47.097931 63.049973,45.887749 
	C62.938099,44.835224 63.115479,44.040710 63.556942,43.088951 
	C67.469032,43.503006 70.448135,45.075027 72.085724,48.759697 
z"/>
<path fill="#D6E4ED" opacity="1.000000" stroke="none" 
	d="
M62.992943,58.540047 
	C61.187832,61.267673 59.676357,63.965111 55.822105,63.986984 
	C56.014225,62.127846 56.602409,60.261734 57.431084,58.131050 
	C59.475636,56.631611 61.254482,56.133446 62.992943,58.540047 
z"/>
<path fill="#89B4D3" opacity="1.000000" stroke="none" 
	d="
M58.321003,46.885254 
	C56.186470,45.536438 53.905842,46.153053 51.344528,45.946968 
	C52.875004,42.683128 55.559093,41.423298 59.608803,42.888474 
	C59.509941,44.155636 59.040203,45.409718 58.321003,46.885254 
z"/>
<path fill="#ABCAE0" opacity="1.000000" stroke="none" 
	d="
M66.508438,56.487560 
	C65.975792,56.708748 65.770195,56.752083 65.256866,56.863464 
	C63.024136,56.373886 60.822994,56.461182 59.289871,54.287598 
	C59.557999,52.770012 59.999840,51.547497 60.688530,50.107864 
	C64.301369,50.143276 67.468613,50.652409 67.470230,55.406830 
	C67.163048,55.936733 66.999275,56.123219 66.508438,56.487560 
z"/>
<path fill="#C1DAE9" opacity="1.000000" stroke="none" 
	d="
M58.922806,54.282722 
	C61.269859,54.068176 63.479736,54.006203 64.841415,56.608650 
	C64.476410,57.532864 64.003685,58.134228 63.283028,58.884270 
	C61.699219,57.917469 60.065666,58.019058 58.076485,57.892826 
	C58.024204,56.768623 58.376827,55.670773 58.922806,54.282722 
z"/>
<path fill="#9EC1DB" opacity="1.000000" stroke="none" 
	d="
M66.465347,56.452621 
	C67.820427,51.702240 63.542126,51.886086 61.195599,50.119415 
	C61.080051,49.294010 61.224720,48.697281 61.615486,47.909630 
	C64.239876,49.626026 67.748398,50.220108 69.040100,53.939491 
	C69.695732,56.229916 68.603119,56.776573 66.465347,56.452621 
z"/>
<path fill="#89B0CF" opacity="1.000000" stroke="none" 
	d="
M44.805000,66.567505 
	C46.792809,66.253952 48.523758,66.108078 50.691296,65.950996 
	C51.069637,66.500481 51.011398,67.061180 50.821472,67.870422 
	C47.919704,68.035309 45.336754,68.887802 42.398682,69.865372 
	C41.858727,70.012741 41.667175,70.001450 41.188179,69.975227 
	C40.715828,69.735199 40.530914,69.510101 40.671623,68.993591 
	C40.997250,68.702194 40.969509,68.283302 40.979248,68.072746 
	C42.175369,67.486519 43.361759,67.110847 44.805000,66.567505 
z"/>
<path fill="#6488B5" opacity="1.000000" stroke="none" 
	d="
M37.066158,94.335991 
	C40.631195,94.827080 40.937798,98.761307 43.664452,100.856781 
	C43.986687,103.330513 42.706032,102.463730 41.329346,101.947395 
	C40.601540,98.974907 37.933189,97.333977 37.066158,94.335991 
z"/>
<path fill="#3C5195" opacity="1.000000" stroke="none" 
	d="
M107.245544,98.880112 
	C106.956116,97.727104 106.981316,96.466583 107.041351,94.826157 
	C108.794189,93.949287 110.512177,93.452309 112.607445,93.022552 
	C111.176537,94.984039 109.368355,96.878311 107.245544,98.880112 
z"/>
<path fill="#6F93BE" opacity="1.000000" stroke="none" 
	d="
M51.565460,105.761444 
	C51.745152,107.793907 50.636539,109.059181 48.585354,110.046898 
	C48.010494,110.163834 47.807426,110.069778 47.485451,109.835724 
	C47.612484,109.489136 47.716465,109.224907 47.658253,108.946991 
	C47.598610,108.662247 47.528908,108.519859 47.266777,108.213425 
	C47.027645,104.575172 49.681244,106.182060 51.565460,105.761444 
z"/>
<path fill="#A2222A" opacity="1.000000" stroke="none" 
	d="
M95.789490,98.011414 
	C97.994659,99.705376 100.361488,100.297684 103.414574,99.822426 
	C104.670212,101.604301 102.987381,101.652992 101.658348,102.333847 
	C99.726166,102.438187 98.181145,102.904549 96.485840,101.549011 
	C95.867737,100.652382 95.604362,100.039070 95.112579,99.174362 
	C95.119629,98.673950 95.355095,98.424927 95.789490,98.011414 
z"/>
<path fill="#C1DAE9" opacity="1.000000" stroke="none" 
	d="
M79.717072,94.351463 
	C81.812782,93.979698 83.065102,95.266212 83.967072,97.499641 
	C83.646744,97.926895 83.226601,98.022675 82.484283,98.096924 
	C81.392555,96.940353 80.623009,95.805313 79.717072,94.351463 
z"/>
<path fill="#A0C0D9" opacity="1.000000" stroke="none" 
	d="
M80.776665,51.399139 
	C81.527374,50.712719 82.060173,50.414642 82.898712,50.068760 
	C84.117516,50.755989 85.030571,51.491024 86.067413,52.498459 
	C86.191208,52.770851 86.051422,52.953930 85.976364,53.041283 
	C84.996101,54.002041 83.963043,54.506012 82.240936,54.110863 
	C80.984520,53.481728 80.505035,52.787884 80.776665,51.399139 
z"/>
<path fill="#406298" opacity="1.000000" stroke="none" 
	d="
M71.289680,105.831154 
	C71.011955,105.536598 71.004692,105.074089 70.997116,104.264603 
	C71.368217,103.757408 71.739616,103.597206 72.413498,103.449585 
	C72.702812,104.391258 72.288979,105.109940 71.289680,105.831154 
z"/>
<path fill="#C1DAE9" opacity="1.000000" stroke="none" 
	d="
M80.828918,43.114723 
	C80.900215,42.695587 81.072174,42.473671 81.587784,42.008305 
	C81.954201,42.266617 81.976974,42.768375 82.004219,43.647175 
	C81.648987,43.786789 81.289284,43.549366 80.828918,43.114723 
z"/>
<path fill="#000000" opacity="0" stroke="none" 
	d="
M122.412140,84.035599 
	C122.146828,83.196579 122.767921,82.785538 123.733849,82.679253 
	C123.895317,83.666405 123.399986,83.942032 122.412140,84.035599 
z"/>
<path fill="#4773A7" opacity="1.000000" stroke="none" 
	d="
M47.051254,108.382248 
	C47.219021,108.308762 47.353493,108.710541 47.417072,109.426010 
	C47.346180,109.739700 47.266636,109.828430 47.209671,109.814621 
	C47.107788,109.486374 47.062874,109.171951 47.051254,108.382248 
z"/>
<path fill="#406298" opacity="1.000000" stroke="none" 
	d="
M73.747581,103.199799 
	C73.782845,103.435066 73.520576,103.599121 73.002289,103.776978 
	C73.012817,103.621155 73.247414,103.400421 73.747581,103.199799 
z"/>
<path fill="#406298" opacity="1.000000" stroke="none" 
	d="
M87.526886,106.114471 
	C88.457634,106.567307 89.016579,107.096703 89.812622,107.789490 
	C89.312843,114.477280 84.582939,115.788559 78.975983,116.529358 
	C71.737526,118.245682 64.696388,119.547508 57.746281,121.226189 
	C55.804981,121.695076 54.628391,121.943520 54.005436,119.401077 
	C54.949150,118.896774 56.331810,118.837990 56.491791,117.834290 
	C57.659908,110.505554 64.409630,109.921120 69.628494,107.037567 
	C68.792999,111.544968 63.774315,113.132477 62.063599,117.661819 
	C67.325111,117.522896 72.584602,117.650322 75.461182,111.376518 
	C77.535149,106.853210 82.972626,107.359467 87.526886,106.114471 
z"/>
<path fill="#83A0C5" opacity="1.000000" stroke="none" 
	d="
M96.093475,101.625717 
	C97.561829,100.552292 99.015854,101.114464 100.900360,101.226486 
	C102.383972,104.962860 97.897888,105.607979 97.060760,108.618118 
	C96.270805,109.367607 95.800316,109.941673 95.070190,110.626266 
	C94.435410,111.269020 93.923042,111.512489 92.874367,111.255829 
	C93.668793,108.024864 94.862320,105.005302 96.093475,101.625717 
z"/>
<path fill="#3C5195" opacity="1.000000" stroke="none" 
	d="
M92.315361,111.278046 
	C92.990067,110.923935 93.504860,110.803444 94.415100,110.709869 
	C94.720917,112.096458 93.860542,112.725113 92.313110,113.103180 
	C92.038269,112.629211 92.096855,112.070435 92.315361,111.278046 
z"/>
<path fill="#8FAECE" opacity="1.000000" stroke="none" 
	d="
M116.981087,59.788300 
	C117.048706,60.453178 116.940125,60.867229 116.788788,61.599625 
	C116.318672,62.890724 115.695259,63.666664 114.266953,64.073914 
	C111.463249,63.845284 109.999519,62.084621 108.164841,60.245285 
	C108.044342,56.453949 107.746620,52.896923 109.647293,49.384697 
	C110.150742,50.642487 111.421600,51.162476 112.716064,52.053177 
	C113.671539,53.558266 114.331528,54.936977 115.062744,56.650879 
	C115.054428,57.159607 114.974884,57.333141 115.085258,57.292370 
	C115.275177,57.078068 115.663734,57.202400 115.758453,57.383057 
	C115.388947,58.598438 116.354408,58.943798 116.981087,59.788300 
z"/>
<path fill="#7BABCC" opacity="1.000000" stroke="none" 
	d="
M107.775726,60.227669 
	C110.281822,59.802368 111.798584,61.354710 113.734863,62.827229 
	C114.156822,63.226662 114.287025,63.444229 114.368393,64.040115 
	C113.982872,65.143509 113.440819,65.653587 112.328705,66.025436 
	C110.052773,66.055420 108.465263,65.487831 107.449158,63.265495 
	C107.362328,62.135620 107.490547,61.318066 107.775726,60.227669 
z"/>
<path fill="#6F93BE" opacity="1.000000" stroke="none" 
	d="
M107.117447,63.328804 
	C108.609657,63.595657 109.985199,64.238144 111.681419,64.952965 
	C112.144295,65.166008 112.286507,65.306717 112.412178,65.747200 
	C112.208939,66.411163 111.932434,66.688240 111.279282,66.920799 
	C109.607742,67.599564 108.234978,68.247307 106.553680,69.001938 
	C106.497025,67.307365 106.748901,65.505898 107.117447,63.328804 
z"/>
<path fill="#6488B5" opacity="1.000000" stroke="none" 
	d="
M40.575176,68.774574 
	C40.983517,68.912163 40.969784,69.122124 40.928394,69.646202 
	C40.088726,70.158165 39.276711,70.356018 38.216980,70.753868 
	C34.024487,75.865494 33.938904,81.505669 34.891914,87.685059 
	C35.633179,89.762154 36.358601,91.493095 37.056038,93.580612 
	C33.340355,91.723717 32.219727,87.595192 29.905346,84.359497 
	C27.557812,81.077446 25.303333,77.728828 22.810638,74.084137 
	C22.806366,73.231522 22.999552,72.704140 23.448822,72.047134 
	C27.422626,72.006828 30.829250,70.500465 34.734901,69.718315 
	C36.764683,69.351730 38.458893,69.099342 40.575176,68.774574 
z"/>
<path fill="#89B0CF" opacity="1.000000" stroke="none" 
	d="
M34.162956,60.286194 
	C34.628212,59.708168 35.035686,59.382233 35.700813,58.988831 
	C35.530994,59.567650 35.103527,60.213932 34.387146,60.957848 
	C34.100544,60.883076 34.102859,60.710674 34.162956,60.286194 
z"/>
<path fill="#89B0CF" opacity="1.000000" stroke="none" 
	d="
M32.305702,62.949036 
	C32.523048,62.454445 33.039005,61.903648 33.811234,61.229919 
	C33.887074,61.954044 33.418991,62.565426 32.305702,62.949036 
z"/>
<path fill="#D42729" opacity="1.000000" stroke="none" 
	d="
M26.609634,37.093922 
	C26.308128,36.417568 26.371021,35.934433 26.976406,35.839306 
	C27.161840,35.810165 27.565695,36.166573 27.601891,36.389820 
	C27.692478,36.948517 27.397161,37.299404 26.609634,37.093922 
z"/>
<path fill="#A22026" opacity="1.000000" stroke="none" 
	d="
M50.010406,131.341248 
	C50.231426,131.768143 50.102108,132.127487 49.891449,132.762634 
	C49.035492,133.037247 48.260880,133.036087 47.090118,133.030548 
	C47.436100,132.024689 48.363598,131.336945 50.010406,131.341248 
z"/>
<path fill="#3C5195" opacity="1.000000" stroke="none" 
	d="
M97.088905,108.777504 
	C96.929955,105.705025 100.287834,104.620728 101.214180,101.592850 
	C102.079964,100.970131 102.820137,100.673874 103.682571,100.085884 
	C103.976959,99.542450 104.178528,99.317085 104.596443,98.991364 
	C105.279716,98.806816 105.776108,98.748978 106.629654,98.811783 
	C104.254539,102.647148 100.792702,105.652985 97.088905,108.777504 
z"/>
<path fill="#406298" opacity="1.000000" stroke="none" 
	d="
M50.859718,112.785179 
	C51.090778,112.917091 51.543030,112.950294 51.769047,112.966919 
	C51.994343,113.745110 51.993622,114.506676 51.979698,115.648247 
	C50.951111,115.569778 50.181561,114.902771 50.056309,113.162201 
	C50.275784,112.616882 50.452221,112.635071 50.859718,112.785179 
z"/>
<path fill="#406298" opacity="1.000000" stroke="none" 
	d="
M52.000225,116.356697 
	C53.218620,116.306816 53.855064,117.095787 53.948250,118.691872 
	C52.939861,118.554817 52.158581,117.884369 52.000225,116.356697 
z"/>
<path fill="#406298" opacity="1.000000" stroke="none" 
	d="
M48.468826,110.780060 
	C48.826897,110.981407 49.200409,111.225548 49.799889,111.719193 
	C50.145897,112.098404 50.265930,112.228104 50.272346,112.597298 
	C50.158726,112.836792 50.031425,112.965256 49.967690,113.029404 
	C49.569241,113.037003 49.305824,112.868797 49.037155,112.361877 
	C48.847183,111.931503 48.733753,111.728180 48.597710,111.176361 
	C48.575096,110.827858 48.484264,110.822838 48.468826,110.780060 
z"/>
<path fill="#4773A7" opacity="1.000000" stroke="none" 
	d="
M48.375698,110.959518 
	C48.649879,111.042595 48.724659,111.257332 48.880020,111.803436 
	C48.699173,111.786942 48.437737,111.439056 48.375698,110.959518 
z"/>
<path fill="#709ABF" opacity="1.000000" stroke="none" 
	d="
M117.339920,60.056355 
	C116.240692,59.761223 115.544807,59.302597 115.749107,57.877922 
	C116.544128,58.198483 117.235085,58.833263 117.907135,59.756004 
	C117.888229,60.043968 117.522552,60.073582 117.339920,60.056355 
z"/>
<path fill="#709ABF" opacity="1.000000" stroke="none" 
	d="
M115.259293,57.025261 
	C115.275177,57.078068 115.068832,57.258705 115.068832,57.258705 
	C115.068832,57.258705 114.968315,57.090469 115.051147,57.038269 
	C115.133980,56.986069 115.243416,56.972458 115.259293,57.025261 
z"/>
<path fill="#C1DAE9" opacity="1.000000" stroke="none" 
	d="
M83.016388,40.843094 
	C82.674294,40.917046 82.795235,40.443310 82.777618,40.199512 
	C83.268227,39.586903 83.776451,39.218090 84.598816,38.755764 
	C84.743050,39.621490 84.397461,40.451107 83.016388,40.843094 
z"/>
<path fill="#406298" opacity="1.000000" stroke="none" 
	d="
M70.215454,106.855026 
	C70.181892,106.716820 70.380096,106.482094 70.808212,106.148682 
	C70.843246,106.287476 70.646278,106.523651 70.215454,106.855026 
z"/>
<path fill="#83A0C5" opacity="1.000000" stroke="none" 
	d="
M35.146637,87.695312 
	C31.315201,83.679741 32.554684,74.665421 37.606293,70.999680 
	C36.379402,76.307632 36.104828,81.868546 35.146637,87.695312 
z"/>
<path fill="#CDE1ED" opacity="1.000000" stroke="none" 
	d="
M66.111580,56.347290 
	C67.188881,56.038441 68.334549,55.918793 69.130310,54.492516 
	C69.781250,53.707901 70.271774,53.217987 70.897362,52.503754 
	C71.184547,51.946964 71.385849,51.647564 71.839340,51.199486 
	C72.042358,51.017750 71.990929,51.063065 72.010910,51.091423 
	C72.610405,50.631287 73.189911,50.142784 73.894241,49.398270 
	C74.804352,48.486111 75.589638,47.829956 76.648476,47.033325 
	C77.163094,49.850883 75.664673,52.776344 76.804420,55.776562 
	C77.007225,56.310406 76.870316,57.445656 76.515427,57.648991 
	C69.963585,61.402912 73.493507,69.976006 68.239555,74.682053 
	C67.179268,73.838234 66.327263,72.716316 65.274918,71.368500 
	C64.824158,70.889381 64.592598,70.619972 64.187912,70.149109 
	C63.995911,69.963875 64.035912,70.019569 64.066010,70.002853 
	C64.111984,69.814011 64.127869,69.641891 64.165245,69.211380 
	C65.576149,65.659714 66.321556,62.203850 66.621841,58.380692 
	C66.437080,57.845284 66.411964,57.605087 66.284119,57.015152 
	C66.181381,56.665413 66.137688,56.452686 66.111580,56.347290 
z"/>
<path fill="#B4D2E5" opacity="1.000000" stroke="none" 
	d="
M80.677979,51.079544 
	C81.207054,51.532146 81.419533,52.053497 81.823944,52.784615 
	C82.815125,53.784161 84.236435,54.539944 83.934402,55.645290 
	C82.756454,59.956123 84.557800,64.349739 83.106354,68.903542 
	C78.281258,71.103973 76.352600,74.328102 76.870293,79.157578 
	C77.040947,80.749634 77.571556,82.450668 75.312225,83.550583 
	C73.788818,83.513367 73.084908,82.874199 72.893425,81.382828 
	C71.860680,76.187904 72.777245,71.697716 75.117737,67.421196 
	C75.509460,66.705444 75.615036,65.470161 76.159508,65.256523 
	C82.258316,62.863579 80.068726,58.276222 79.043617,54.176666 
	C78.628677,52.517269 78.788147,51.673382 80.677979,51.079544 
z"/>
<path fill="#D6E4ED" opacity="1.000000" stroke="none" 
	d="
M72.599762,81.014191 
	C73.485100,81.579056 73.971977,82.154999 74.702057,82.880653 
	C78.352959,84.253693 78.697517,87.586426 79.977478,90.647797 
	C79.801094,91.623505 79.595375,92.246605 79.130066,93.083092 
	C78.533951,92.897079 78.197433,92.497688 77.736259,91.863174 
	C75.895210,91.541115 75.324448,89.971176 73.997574,88.778198 
	C72.355919,86.446907 70.766914,84.459053 71.243439,81.388687 
	C71.670044,81.041809 71.935669,81.033539 72.599762,81.014191 
z"/>
<path fill="#89B4D3" opacity="1.000000" stroke="none" 
	d="
M71.231224,80.916023 
	C72.543053,83.142006 73.681686,85.233925 74.957970,87.644531 
	C72.849251,89.932587 71.772339,88.019562 70.273422,86.294571 
	C69.996956,85.553284 69.995781,85.111031 69.992729,84.337204 
	C69.760872,83.211670 69.530899,82.417709 69.174072,81.342140 
	C69.050598,80.888062 69.053970,80.715599 69.063438,80.284477 
	C69.215134,79.869644 69.360718,79.713470 69.727005,79.789383 
	C70.317810,80.274956 70.687920,80.528458 71.231224,80.916023 
z"/>
<path fill="#96B9D5" opacity="1.000000" stroke="none" 
	d="
M69.832939,79.797867 
	C69.947693,80.021454 69.507820,80.020248 69.288681,80.023026 
	C69.058540,79.829742 69.047546,79.633682 69.030594,79.141457 
	C69.255821,79.088287 69.487000,79.331276 69.832939,79.797867 
z"/>
<path fill="#CDE1ED" opacity="1.000000" stroke="none" 
	d="
M77.139130,46.844505 
	C77.139183,46.701836 77.353943,46.414375 77.838470,46.055984 
	C77.856766,46.223282 77.605293,46.461502 77.139130,46.844505 
z"/>
<path fill="#9EC1DB" opacity="1.000000" stroke="none" 
	d="
M99.912109,47.670013 
	C97.651169,48.645630 95.288841,49.191086 92.412346,48.995667 
	C94.476967,44.209415 96.297592,43.820602 99.912109,47.670013 
z"/>
<path fill="#7BABCC" opacity="1.000000" stroke="none" 
	d="
M69.996735,86.247604 
	C71.461823,86.639732 72.925522,87.283928 74.742416,87.945679 
	C75.830711,88.998611 76.565811,90.034004 77.456253,91.348724 
	C74.597939,91.998329 72.871101,89.596550 70.302437,88.206833 
	C70.004311,87.868561 70.001472,87.695602 69.995041,87.263229 
	C69.992752,86.835777 69.994049,86.667732 69.996735,86.247604 
z"/>
<path fill="#A0C0D9" opacity="1.000000" stroke="none" 
	d="
M65.808807,78.745682 
	C64.863747,78.940712 63.784058,78.802917 63.101059,77.331436 
	C64.067787,77.151848 64.993446,77.562096 65.808807,78.745682 
z"/>
<path fill="#89B0CF" opacity="1.000000" stroke="none" 
	d="
M64.146652,70.183975 
	C64.271278,70.193016 64.546646,70.422150 64.948288,70.896942 
	C64.815514,70.896423 64.556450,70.650253 64.146652,70.183975 
z"/>
<path fill="#89B4D3" opacity="1.000000" stroke="none" 
	d="
M86.990570,75.441879 
	C87.726944,75.025917 88.466339,74.998459 89.573662,74.958656 
	C89.802734,76.819611 91.301208,78.563606 90.182159,80.779961 
	C89.160233,80.463791 88.336250,79.866356 87.254211,79.103539 
	C86.995300,77.902237 86.994446,76.866302 86.990570,75.441879 
z"/>
<path fill="#A5CADF" opacity="1.000000" stroke="none" 
	d="
M80.175423,90.718048 
	C78.380951,88.564163 76.755096,86.127922 75.037254,83.361023 
	C75.770721,82.084991 76.246880,80.854538 75.657570,79.817314 
	C72.954002,75.058876 78.455971,72.200989 78.385796,67.923645 
	C78.364433,66.621803 80.325188,68.587906 81.727646,68.876106 
	C82.323143,69.411362 82.473457,69.866905 82.231354,70.682587 
	C81.077835,71.537453 80.379768,72.277275 80.060547,73.674774 
	C76.945953,75.497375 78.066635,78.116707 78.393379,80.427628 
	C78.869125,83.792358 80.541481,86.931396 80.175423,90.718048 
z"/>
<path fill="#709ABF" opacity="1.000000" stroke="none" 
	d="
M114.021698,64.366043 
	C114.006248,64.005089 114.013809,63.506958 114.020218,63.258026 
	C114.745888,62.698608 115.465157,62.388123 116.465225,61.997803 
	C119.374733,65.636795 121.975441,69.375847 124.641998,73.067329 
	C126.418167,75.526199 125.039276,76.147659 122.480576,76.402809 
	C118.671272,73.054573 116.863060,68.539162 114.021698,64.366043 
z"/>
<path fill="#5E89B4" opacity="1.000000" stroke="none" 
	d="
M113.753860,64.128677 
	C118.099098,66.896545 120.309547,71.073631 122.038689,76.035652 
	C122.125633,76.432487 122.116310,76.805870 122.094269,76.993118 
	C121.307144,77.122925 120.542061,77.065483 119.394180,77.000748 
	C116.594414,73.617775 114.609795,69.951935 112.025467,66.305923 
	C111.977348,65.955566 111.990227,65.490173 111.996155,65.257736 
	C112.501884,64.767624 113.001686,64.509949 113.753860,64.128677 
z"/>
<path fill="#4C7EB1" opacity="1.000000" stroke="none" 
	d="
M111.789925,66.099838 
	C115.659409,68.468948 118.173820,71.774040 118.985016,76.622650 
	C117.904747,77.796478 116.547089,78.008980 116.296021,76.473785 
	C115.695480,72.801712 112.510735,70.773575 111.057755,67.296570 
	C111.152328,66.684708 111.359657,66.448807 111.789925,66.099838 
z"/>
<path fill="#6392BC" opacity="1.000000" stroke="none" 
	d="
M95.743927,73.158524 
	C97.746552,72.673607 99.457314,72.337944 101.542343,71.961472 
	C101.600807,76.632607 99.813652,80.994141 98.448410,85.798286 
	C96.708527,85.027161 94.439987,85.530167 93.210022,83.380714 
	C95.725883,81.935318 94.797440,79.978485 94.212677,78.153000 
	C93.603233,76.250465 92.870522,74.370789 95.743927,73.158524 
z"/>
<path fill="#D42729" opacity="1.000000" stroke="none" 
	d="
M97.818916,89.873703 
	C98.113243,89.873970 98.438202,89.880341 98.753685,89.938271 
	C100.093422,90.184273 101.802544,89.551399 102.480881,91.364738 
	C102.586128,91.646103 102.188911,92.371635 101.858521,92.517929 
	C99.796867,93.430801 99.003799,91.852036 97.949326,90.166367 
	C97.770950,89.845451 97.845184,89.903534 97.818916,89.873703 
z"/>
<path fill="#ABCAE0" opacity="1.000000" stroke="none" 
	d="
M82.324684,71.100578 
	C82.008835,70.547043 82.004883,70.108727 81.999954,69.341797 
	C82.045784,63.918324 82.092575,58.823471 82.077621,53.361496 
	C83.053665,53.014957 84.091446,53.035534 85.515274,53.092377 
	C85.197632,58.225910 84.804970,63.337742 84.955093,68.492569 
	C84.997322,69.942581 85.093819,71.750984 82.324684,71.100578 
z"/>
<path fill="#466FA1" opacity="1.000000" stroke="none" 
	d="
M50.390747,112.868362 
	C50.158726,112.836792 50.070774,112.406296 50.048317,112.187500 
	C50.302467,112.131088 50.552933,112.326912 50.934021,112.736633 
	C51.090778,112.917091 50.622772,112.899940 50.390747,112.868362 
z"/>
<path fill="#DDEEF5" opacity="1.000000" stroke="none" 
	d="
M66.257767,58.368835 
	C69.475449,60.493919 68.650856,66.215576 64.546143,68.919876 
	C58.695827,64.411644 63.976349,61.822170 66.257767,58.368835 
z"/>
<path fill="#89B0CF" opacity="1.000000" stroke="none" 
	d="
M71.833237,51.192009 
	C71.857674,51.331440 71.672997,51.645134 71.260376,52.119133 
	C71.229660,51.975048 71.426895,51.670658 71.833237,51.192009 
z"/>
<path fill="#5373A4" opacity="1.000000" stroke="none" 
	d="
M62.005531,118.011612 
	C61.769665,118.194778 61.520603,118.360649 61.271545,118.526520 
	C61.393005,118.354050 61.514465,118.181580 61.798958,117.985916 
	C61.961998,117.962730 61.992332,117.994301 62.005531,118.011612 
z"/>
</svg>